HIERARCHY
ROOT Hips
{
  OFFSET -31.5692 30.0904 122.763
  CHANNELS 6 Xposition Yposition Zposition Zrotation Xrotation Yrotation
  JOINT LeftUpLeg
  {
    OFFSET 8.64259 1.95398 -2.38835
    CHANNELS 3 Zrotation Xrotation Yrotation
    JOINT LeftLeg
    {
      OFFSET 43.7702 0 0
      CHANNELS 3 Zrotation Xrotation Yrotation
      JOINT LeftFoot
      {
        OFFSET 40.6238 0 0
        CHANNELS 3 Zrotation Xrotation Yrotation
        JOINT LeftToeBase
        {
          OFFSET 12.7242 0 0
          CHANNELS 3 Zrotation Xrotation Yrotation
          End Site
          {
            OFFSET 0 0 0
          }
        }
      }
    }
  }
  JOINT RightUpLeg
  {
    OFFSET -8.2249 1.95398 -2.59336
    CHANNELS 3 Zrotation Xrotation Yrotation
    JOINT RightLeg
    {
      OFFSET 43.5653 0 0
      CHANNELS 3 Zrotation Xrotation Yrotation
      JOINT RightFoot
      {
        OFFSET 40.6238 0 0
        CHANNELS 3 Zrotation Xrotation Yrotation
        JOINT RightToeBase
        {
          OFFSET 12.7242 0 0
          CHANNELS 3 Zrotation Xrotation Yrotation
          End Site
          {
            OFFSET 0 0 0
          }
        }
      }
    }
  }
  JOINT Spine
  {
    OFFSET 0.165834 0.87714 6.61349
    CHANNELS 3 Zrotation Xrotation Yrotation
    JOINT Spine1
    {
      OFFSET 7.38963 1.71661e-005 0
      CHANNELS 3 Zrotation Xrotation Yrotation
      JOINT Spine2
      {
        OFFSET 11.9445 1.14441e-005 0
        CHANNELS 3 Zrotation Xrotation Yrotation
        JOINT Spine3
        {
          OFFSET 14.7254 4.19617e-005 0
          CHANNELS 3 Zrotation Xrotation Yrotation
          JOINT Spine4
          {
            OFFSET 10.9679 0 0
            CHANNELS 3 Zrotation Xrotation Yrotation
            JOINT RightShoulder
            {
              OFFSET 2.46616 -1.6653 3.69651
              CHANNELS 3 Zrotation Xrotation Yrotation
              JOINT RightArm
              {
                OFFSET 13.0012 0 0
                CHANNELS 3 Zrotation Xrotation Yrotation
                JOINT RightForeArm
                {
                  OFFSET 28.7848 1.62311e-005 0
                  CHANNELS 3 Zrotation Xrotation Yrotation
                  JOINT RightHand
                  {
                    OFFSET 26.5688 1.62095e-005 0
                    CHANNELS 3 Zrotation Xrotation Yrotation
                    End Site
                    {
                      OFFSET 0 0 0
                    }
                  }
                }
              }
            }
            JOINT LeftShoulder
            {
              OFFSET 2.38034 -1.29275 -3.7523
              CHANNELS 3 Zrotation Xrotation Yrotation
              JOINT LeftArm
              {
                OFFSET 16.3182 6.07031e-005 0
                CHANNELS 3 Zrotation Xrotation Yrotation
                JOINT LeftForeArm
                {
                  OFFSET 27.0901 0 0
                  CHANNELS 3 Zrotation Xrotation Yrotation
                  JOINT LeftHand
                  {
                    OFFSET 24.5451 1.51738e-005 0
                    CHANNELS 3 Zrotation Xrotation Yrotation
                    End Site
                    {
                      OFFSET 0 0 0
                    }
                  }
                }
              }
            }
            JOINT Neck
            {
              OFFSET 5.0226 -0.0266342 0
              CHANNELS 3 Zrotation Xrotation Yrotation
              JOINT Head
              {
                OFFSET 6.69364 2.86102e-005 0
                CHANNELS 3 Zrotation Xrotation Yrotation
                End Site
                {
                  OFFSET 0 0 0
                }
              }
            }
          }
        }
      }
    }
  }
}
MOTION
Frames:	12
Frame Time:	0.0416667
41.2539 101.698 -343.024 -162.826 -84.2062 -163.229 -171.593 7.42332 88.7179 5.14352 49.0541 -6.8127 58.1865 -1.1903 16.2382 102.239 69.949 69.7374 173.512 4.91867 89.8369 -26.4772 -8.97767 -1.35799 67.6955 -0.11128 2.96449 31.9989 -2.31281 4.98839 1.0472 7.26299 -89.8054 12.3486 2.17343 0.142054 0.679442 2.17757 0.0462099 -21.8688 2.0302 0.788957 -1.85616 2.0302 0.78895 102.077 -32.1781 -82.2285 42.8561 -11.2857 -9.86336 8.38586 -46.6953 -12.5923 -26.5463 -1.0998 -8.24956 -89.2404 -48.7437 79.6072 -23.0324 14.8974 -10.9235 -6.60289 19.8473 -0.00877488 3.12484 -0.0695832 -18.6687 2.73606 -2.096 -4.13897 -5.64937 -1.39386 0.0263755 
41.3197 101.714 -342.972 -159.919 -84.1963 -160.373 -171.968 6.75642 88.6081 4.61457 48.0987 -6.07695 58.3514 -1.08089 16.3025 93.3375 67.9163 79.5909 173.473 4.27041 89.711 -25.012 -9.1705 -1.33381 68.3299 -1.02529 2.39374 30.7686 -1.86648 5.31538 1.06867 7.23969 -89.8138 12.3955 2.21204 0.119609 0.726402 2.21516 0.0220783 -21.8224 2.07378 0.779163 -1.80978 2.07379 0.779174 98.4457 -34.2612 -89.2029 41.1687 -9.13981 -6.94852 6.49501 -43.9776 -13.8245 -26.2538 -0.887667 -8.78645 -89.5359 -48.986 79.2101 -23.1141 14.7842 -10.5599 -6.40625 19.8807 -0.00877673 3.64264 -0.198382 -19.3252 1.90946 -2.2924 -3.94894 -5.41638 -1.64233 -0.313694 
41.2629 101.715 -342.893 -158.306 -84.0261 -158.712 -172.232 5.11414 88.785 3.80824 46.7583 -5.2419 58.4575 -0.919164 16.4297 79.5484 61.3692 94.9163 173.263 1.9351 89.8463 -20.9145 -10.3311 -1.09833 70.8859 -4.46742 -0.155632 25.3101 0.332895 5.49122 1.09204 7.27269 -89.8302 12.3299 2.25084 0.0844244 0.660894 2.25237 -0.0147842 -21.8886 2.12136 0.757294 -1.87594 2.12135 0.757286 98.2657 -34.4844 -89.5183 40.9433 -9.23999 -6.62906 6.23803 -43.5501 -14.3397 -26.5163 -0.926453 -8.46936 -89.6593 -48.9504 79.0156 -23.203 14.8125 -10.7619 -6.36095 19.457 -0.00875356 3.03774 -0.173651 -20.407 2.87435 -2.5484 -3.29858 -7.04526 -1.93885 -1.18893 
41.1535 102.03 -342.783 -156.667 -83.9886 -156.868 -172.465 2.68989 89.2563 3.06466 44.5955 -4.29194 58.3953 -0.812697 16.3687 68.8314 47.3083 105.753 173.342 0.982462 90.0524 -19.0444 -10.4069 -1.06241 69.7359 -4.10439 0.0475019 25.3963 0.338924 5.3125 1.09169 7.26261 -89.8725 12.3509 2.22995 0.00163336 0.681833 2.22787 -0.0965714 -21.8677 2.12632 0.672062 -1.85503 2.12632 0.672052 98.2071 -34.313 -89.6502 40.9392 -9.65479 -6.54711 6.77894 -42.7982 -14.1168 -26.3312 -0.915143 -8.36116 -89.8321 -49.1637 78.8004 -23.0791 15.1496 -10.4567 -6.59282 18.9865 -0.00872854 2.48801 -0.0961116 -20.2836 2.87873 -2.91804 -2.95901 -7.88646 -2.33365 -1.61345 
41.0083 102.304 -342.572 -154.646 -83.9143 -154.815 -172.895 0.0500141 89.1466 1.61531 40.9919 -2.97967 58.117 -0.840694 15.8262 63.3771 28.2998 105.092 173.261 0.141499 90.0738 -17.4961 -10.4342 -0.951398 69.0342 -4.05367 0.37839 25.2834 0.38862 5.30033 1.08051 7.28213 -89.8937 12.3121 2.19777 -0.0359661 0.643047 2.19406 -0.132706 -21.9062 2.10693 0.626519 -1.89353 2.10693 0.626525 98.0301 -34.4327 -89.9748 40.6553 -9.86405 -6.61835 6.85847 -42.8728 -14.2259 -26.6812 -1.15792 -7.07672 -89.7319 -49.4705 79.0171 -22.9585 15.1678 -10.6538 -6.42808 18.9706 -0.0087277 4.68945 -0.326744 -18.3989 3.53182 -3.34456 -2.64326 -8.97061 -2.77176 -1.70216 
40.6706 102.518 -342.4 -153.109 -84.2146 -153.1 -172.6 -1.20605 89.7292 -1.29811 36.4353 -2.61891 57.9984 -0.745044 14.4757 57.7704 5.63512 93.9056 173.613 -0.556898 90.6553 -15.52 -10.3485 -0.982924 68.1899 -4.01099 0.197389 25.2374 0.468283 5.03952 1.06445 7.24577 -89.9233 12.3853 2.1517 -0.0918098 0.71612 2.14557 -0.186473 -21.8327 2.07977 0.559393 -1.82003 2.07977 0.559392 97.8649 -34.5228 -90.2796 40.3319 -9.9337 -6.48189 7.09171 -43.2893 -14.1103 -26.9729 -1.08815 -7.53661 -90.0737 -49.5689 78.5245 -22.6139 15.1477 -10.5102 -6.58873 18.5521 -0.00870608 4.43596 -0.30282 -18.3997 3.72338 -3.66291 -2.45166 -9.65033 -3.09152 -1.93637 
40.1159 102.713 -342.047 -153.102 -84.2776 -153.322 -172.749 -3.19659 89.6225 -3.58198 28.6152 -1.71767 57.1025 -1.40785 10.7341 51.4723 5.1434 61.9713 173.634 -1.40776 90.633 -14.3251 -10.3477 -0.946636 67.703 -4.09895 -0.0331995 25.4592 0.367194 5.07554 1.01294 7.26068 -89.9364 12.3555 2.0431 -0.104967 0.68614 2.0365 -0.194834 -21.8614 1.98015 0.514168 -1.84873 1.98015 0.514161 97.4228 -33.7863 -91.2294 40.6431 -9.49467 -5.94797 5.45101 -42.8228 -15.7205 -26.1033 -1.09987 -7.35632 -89.8647 -49.8873 78.9061 -22.5344 14.9384 -10.6731 -6.54763 18.6163 -0.00870936 4.02363 -0.271737 -18.8488 4.08111 -3.5631 -1.41588 -10.502 -3.11053 -2.62138 
39.4236 102.894 -341.621 -155.033 -84.552 -155.309 -172.9 -3.91906 89.8362 -6.51235 17.1791 -0.743545 55.9934 -2.49447 3.68882 45.4782 1.45124 34.7577 173.579 -2.34125 90.9391 -12.8166 -10.1506 -0.646673 67.4662 -4.38184 -0.0616499 24.7866 0.648632 5.07466 0.957973 7.26337 -89.9461 12.3497 1.92932 -0.111101 0.680184 1.92255 -0.19595 -21.866 1.87348 0.474083 -1.85336 1.87348 0.474082 96.5714 -33.4813 -92.9164 40.4331 -9.15684 -5.38076 5.59315 -41.4568 -15.4977 -26.4616 -0.882106 -8.23412 -89.9366 -49.7267 78.7643 -22.8762 14.4607 -10.6208 -6.39244 18.8544 -0.00872164 3.68124 -0.231227 -19.2227 4.01012 -3.56796 -1.52776 -10.8138 -3.11585 -2.22505 
38.3178 103.096 -340.989 -159.204 -84.6529 -159.356 -172.296 -3.04112 91.0522 -11.5607 4.21498 -0.329839 55.4607 -4.14699 -6.14813 45.6209 5.4664 14.1121 174.041 -4.2618 91.7852 -10.0792 -9.23126 -0.583872 66.615 -4.53194 -0.192323 24.6734 0.655652 5.24292 0.898858 7.29169 -89.9976 12.2935 1.78754 -0.196621 0.623722 1.77715 -0.275135 -21.9211 1.76396 0.349877 -1.90844 1.76395 0.349865 95.9741 -32.8413 -94.1912 40.1878 -9.09701 -5.36726 6.15658 -40.9219 -14.7842 -25.8577 -0.911029 -7.971 -89.7848 -50.3676 79.127 -22.4131 14.1969 -10.6578 -6.25122 17.7297 -0.00866523 3.67135 -0.313266 -19.8239 3.33462 -3.47169 -1.32127 -10.7274 -3.10087 -1.70724 
37.1142 103.14 -340.171 -169.932 -84.7209 -170.79 -172.415 -2.73365 91.4051 -14.4356 -5.88246 0.337695 53.6293 -5.84622 -14.9492 46.6945 8.00778 0.490959 173.534 -5.14029 91.5666 -9.97287 -8.71167 -0.184482 67.1072 -4.83081 -0.260462 24.5409 0.723506 5.19046 0.76296 7.33781 -89.9411 12.1997 1.54445 -0.054497 0.529657 1.54055 -0.122437 -22.0125 1.48941 0.4123 -1.99985 1.4894 0.41229 94.266 -32.551 -97.5806 40.0554 -8.39922 -4.46131 6.00608 -40.3381 -14.5392 -25.5987 -0.871873 -8.06051 -89.289 -50.911 79.9748 -22.2699 13.5179 -10.2658 -6.10851 17.1881 -0.0086395 3.46127 -0.278202 -19.4533 1.996 -2.94733 -1.20894 -9.88218 -2.67147 -0.999688 
35.645 102.931 -339.201 -174.169 -84.6441 -175.502 -171.964 -2.78502 92.0293 -15.6423 -6.51774 0.311737 53.9076 -5.23337 -16.6605 47.4292 8.40412 -0.107197 173.32 -5.81902 91.6855 -10.4037 -8.34632 0.111038 68.3686 -5.55519 -0.248189 24.2613 0.76465 5.50079 0.717708 7.39107 -89.9 12.0925 1.47408 0.0376602 0.422371 1.47431 -0.0272774 -22.119 1.3946 0.479025 -2.10636 1.3946 0.479022 93.0378 -32.1941 -100.064 39.7118 -8.41261 -4.56645 6.48285 -39.562 -13.9971 -26.3648 -0.927575 -7.58101 -89.0815 -51.3276 80.3641 -22.6248 12.6088 -9.20996 -5.58222 12.9262 -0.00846826 0.17752 0.0251642 -21.0571 0.930364 -2.35811 -0.947334 -9.22233 -2.17599 -0.391972 
34.2058 101.942 -338.571 173.199 -84.7891 171.71 -171.684 0.000283251 92.7352 -20.007 3.98321 0.153787 58.9663 -0.774117 -9.61964 47.427 6.37352 15.1863 172.932 -3.5268 92.3089 -16.0493 -7.4773 0.829271 72.0399 -6.39486 -0.636678 23.9702 0.706359 6.2326 0.55247 7.4835 -89.9237 11.9074 1.13445 0.0297729 0.236953 1.13467 -0.0202056 -22.3018 1.07305 0.369382 -2.28917 1.07306 0.369377 91.2458 -30.8313 -104.003 39.8356 -8.10748 -4.51204 5.69716 -37.9612 -14.7385 -25.7887 -0.873395 -7.52282 -87.8111 -51.7512 82.3141 -23.1404 10.8967 -8.57217 -4.65254 11.5236 0.110665 1.86385 -0.266183 -19.9862 0.739606 -1.41367 0.935958 -8.41506 -1.50304 -0.841076 
